Normalized EMG Linear Envelopes
nRows=59
nColumns=17

endheader
time	        VM	        VL	        RF	       GRA	        TA	   ADDLONG	   SEMIMEM	      BFLH	        GM	        GL	       TFL	   GLUTMAX	   GLUTMED	      PIRI	    OBTINT	        QF	
3.794	  0.519710	  0.881438	  0.107931	  0.296703	  0.120583	  0.090975	  0.419919	  0.496296	  0.559444	  0.724036	  0.118980	  0.446701	  0.252657	  0.000000	  0.000000	  0.000000	
3.7945	  0.516333	  0.875566	  0.107341	  0.296396	  0.120338	  0.091071	  0.417681	  0.494073	  0.561951	  0.725267	  0.119090	  0.441521	  0.250419	  0.000000	  0.000000	  0.000000	
3.795	  0.512858	  0.869528	  0.106736	  0.296091	  0.120113	  0.091187	  0.415408	  0.491807	  0.564455	  0.726445	  0.119202	  0.436309	  0.248187	  0.000000	  0.000000	  0.000000	
3.7955	  0.509285	  0.863325	  0.106116	  0.295790	  0.119910	  0.091324	  0.413103	  0.489501	  0.566959	  0.727571	  0.119315	  0.431065	  0.245963	  0.000000	  0.000000	  0.000000	
3.796	  0.505614	  0.856959	  0.105480	  0.295495	  0.119726	  0.091484	  0.410769	  0.487158	  0.569463	  0.728647	  0.119430	  0.425794	  0.243747	  0.000000	  0.000000	  0.000000	
3.7965	  0.501847	  0.850432	  0.104829	  0.295209	  0.119561	  0.091666	  0.408409	  0.484780	  0.571967	  0.729676	  0.119547	  0.420496	  0.241542	  0.000000	  0.000000	  0.000000	
3.797	  0.497985	  0.843747	  0.104161	  0.294933	  0.119415	  0.091872	  0.406026	  0.482369	  0.574472	  0.730659	  0.119667	  0.415175	  0.239348	  0.000000	  0.000000	  0.000000	
3.7975	  0.494031	  0.836906	  0.103476	  0.294671	  0.119288	  0.092102	  0.403622	  0.479929	  0.576978	  0.731598	  0.119790	  0.409834	  0.237167	  0.000000	  0.000000	  0.000000	
3.798	  0.489985	  0.829910	  0.102775	  0.294424	  0.119177	  0.092357	  0.401200	  0.477459	  0.579487	  0.732493	  0.119916	  0.404474	  0.235000	  0.000000	  0.000000	  0.000000	
3.7985	  0.485851	  0.822763	  0.102056	  0.294195	  0.119083	  0.092638	  0.398763	  0.474964	  0.581998	  0.733348	  0.120045	  0.399097	  0.232848	  0.000000	  0.000000	  0.000000	
3.799	  0.481629	  0.815466	  0.101321	  0.293985	  0.119005	  0.092946	  0.396313	  0.472444	  0.584512	  0.734162	  0.120178	  0.393707	  0.230713	  0.000000	  0.000000	  0.000000	
3.7995	  0.477323	  0.808024	  0.100569	  0.293797	  0.118942	  0.093280	  0.393854	  0.469902	  0.587029	  0.734938	  0.120315	  0.388306	  0.228595	  0.000000	  0.000000	  0.000000	
3.8	  0.472934	  0.800438	  0.099799	  0.293632	  0.118894	  0.093642	  0.391386	  0.467338	  0.589548	  0.735676	  0.120456	  0.382894	  0.226495	  0.000000	  0.000000	  0.000000	
3.8005	  0.468464	  0.792714	  0.099013	  0.293493	  0.118860	  0.094033	  0.388913	  0.464755	  0.592070	  0.736378	  0.120602	  0.377475	  0.224414	  0.000000	  0.000000	  0.000000	
3.801	  0.463918	  0.784857	  0.098210	  0.293382	  0.118839	  0.094452	  0.386437	  0.462155	  0.594595	  0.737044	  0.120753	  0.372051	  0.222354	  0.000000	  0.000000	  0.000000	
3.8015	  0.459297	  0.776871	  0.097391	  0.293300	  0.118830	  0.094901	  0.383960	  0.459538	  0.597122	  0.737675	  0.120909	  0.366623	  0.220314	  0.000000	  0.000000	  0.000000	
3.802	  0.454605	  0.768763	  0.096555	  0.293249	  0.118834	  0.095380	  0.381484	  0.456906	  0.599651	  0.738271	  0.121070	  0.361195	  0.218296	  0.000000	  0.000000	  0.000000	
3.8025	  0.449845	  0.760537	  0.095703	  0.293232	  0.118848	  0.095889	  0.379011	  0.454261	  0.602181	  0.738832	  0.121237	  0.355767	  0.216301	  0.000000	  0.000000	  0.000000	
3.803	  0.445020	  0.752201	  0.094836	  0.293249	  0.118874	  0.096430	  0.376543	  0.451604	  0.604712	  0.739359	  0.121410	  0.350342	  0.214328	  0.000000	  0.000000	  0.000000	
3.8035	  0.440133	  0.743760	  0.093953	  0.293302	  0.118910	  0.097003	  0.374082	  0.448936	  0.607243	  0.739852	  0.121588	  0.344923	  0.212379	  0.000000	  0.000000	  0.000000	
3.804	  0.435187	  0.735219	  0.093054	  0.293394	  0.118956	  0.097608	  0.371629	  0.446258	  0.609773	  0.740311	  0.121773	  0.339512	  0.210455	  0.000000	  0.000000	  0.000000	
3.8045	  0.430186	  0.726585	  0.092142	  0.293525	  0.119011	  0.098245	  0.369187	  0.443571	  0.612300	  0.740736	  0.121964	  0.334111	  0.208555	  0.000000	  0.000000	  0.000000	
3.805	  0.425133	  0.717863	  0.091216	  0.293697	  0.119076	  0.098917	  0.366756	  0.440875	  0.614824	  0.741126	  0.122163	  0.328722	  0.206681	  0.000000	  0.000000	  0.000000	
3.8055	  0.420031	  0.709059	  0.090276	  0.293912	  0.119150	  0.099622	  0.364339	  0.438172	  0.617343	  0.741480	  0.122368	  0.323348	  0.204832	  0.000000	  0.000000	  0.000000	
3.806	  0.414883	  0.700177	  0.089324	  0.294172	  0.119232	  0.100361	  0.361935	  0.435462	  0.619856	  0.741799	  0.122581	  0.317991	  0.203010	  0.000000	  0.000000	  0.000000	
3.8065	  0.409693	  0.691223	  0.088360	  0.294479	  0.119322	  0.101136	  0.359548	  0.432746	  0.622360	  0.742081	  0.122802	  0.312653	  0.201215	  0.000000	  0.000000	  0.000000	
3.807	  0.404463	  0.682203	  0.087385	  0.294834	  0.119420	  0.101946	  0.357176	  0.430023	  0.624854	  0.742325	  0.123030	  0.307336	  0.199446	  0.000000	  0.000000	  0.000000	
3.8075	  0.399198	  0.673121	  0.086399	  0.295238	  0.119525	  0.102791	  0.354823	  0.427295	  0.627337	  0.742532	  0.123268	  0.302043	  0.197706	  0.000000	  0.000000	  0.000000	
3.808	  0.393899	  0.663984	  0.085404	  0.295694	  0.119637	  0.103673	  0.352488	  0.424562	  0.629806	  0.742698	  0.123513	  0.296774	  0.195993	  0.000000	  0.000000	  0.000000	
3.8085	  0.388572	  0.654796	  0.084400	  0.296203	  0.119756	  0.104592	  0.350173	  0.421825	  0.632258	  0.742824	  0.123768	  0.291532	  0.194308	  0.000000	  0.000000	  0.000000	
3.809	  0.383218	  0.645564	  0.083387	  0.296766	  0.119881	  0.105547	  0.347878	  0.419082	  0.634693	  0.742907	  0.124031	  0.286318	  0.192652	  0.000000	  0.000000	  0.000000	
3.8095	  0.377842	  0.636293	  0.082368	  0.297385	  0.120013	  0.106540	  0.345603	  0.416336	  0.637106	  0.742947	  0.124304	  0.281135	  0.191024	  0.000000	  0.000000	  0.000000	
3.81	  0.372447	  0.626988	  0.081341	  0.298061	  0.120152	  0.107571	  0.343350	  0.413585	  0.639497	  0.742941	  0.124586	  0.275984	  0.189425	  0.000000	  0.000000	  0.000000	
3.8105	  0.367037	  0.617656	  0.080309	  0.298796	  0.120296	  0.108639	  0.341119	  0.410830	  0.641861	  0.742888	  0.124877	  0.270867	  0.187855	  0.000000	  0.000000	  0.000000	
3.811	  0.361614	  0.608301	  0.079272	  0.299590	  0.120447	  0.109746	  0.338910	  0.408071	  0.644198	  0.742785	  0.125179	  0.265785	  0.186314	  0.000000	  0.000000	  0.000000	
3.8115	  0.356182	  0.598929	  0.078230	  0.300444	  0.120603	  0.110891	  0.336724	  0.405307	  0.646503	  0.742632	  0.125491	  0.260739	  0.184802	  0.000000	  0.000000	  0.000000	
3.812	  0.350743	  0.589545	  0.077185	  0.301361	  0.120766	  0.112075	  0.334560	  0.402537	  0.648776	  0.742427	  0.125813	  0.255732	  0.183320	  0.000000	  0.000000	  0.000000	
3.8125	  0.345302	  0.580154	  0.076138	  0.302340	  0.120933	  0.113298	  0.332419	  0.399763	  0.651013	  0.742167	  0.126147	  0.250764	  0.181866	  0.000000	  0.000000	  0.000000	
3.813	  0.339861	  0.570761	  0.075088	  0.303384	  0.121106	  0.114560	  0.330300	  0.396984	  0.653211	  0.741851	  0.126491	  0.245837	  0.180441	  0.000000	  0.000000	  0.000000	
3.8135	  0.334422	  0.561371	  0.074036	  0.304492	  0.121284	  0.115862	  0.328205	  0.394199	  0.655369	  0.741477	  0.126847	  0.240952	  0.179046	  0.000000	  0.000000	  0.000000	
3.814	  0.328989	  0.551989	  0.072985	  0.305665	  0.121467	  0.117203	  0.326132	  0.391408	  0.657483	  0.741044	  0.127214	  0.236109	  0.177680	  0.000000	  0.000000	  0.000000	
3.8145	  0.323564	  0.542620	  0.071933	  0.306904	  0.121654	  0.118583	  0.324081	  0.388610	  0.659551	  0.740549	  0.127593	  0.231311	  0.176342	  0.000000	  0.000000	  0.000000	
3.815	  0.318149	  0.533267	  0.070882	  0.308210	  0.121847	  0.120003	  0.322053	  0.385806	  0.661570	  0.739992	  0.127983	  0.226558	  0.175034	  0.000000	  0.000000	  0.000000	
3.8155	  0.312748	  0.523934	  0.069832	  0.309583	  0.122045	  0.121463	  0.320046	  0.382995	  0.663537	  0.739372	  0.128386	  0.221851	  0.173755	  0.000000	  0.000000	  0.000000	
3.816	  0.307362	  0.514627	  0.068785	  0.311024	  0.122247	  0.122962	  0.318060	  0.380176	  0.665451	  0.738688	  0.128801	  0.217191	  0.172504	  0.000000	  0.000000	  0.000000	
3.8165	  0.301995	  0.505349	  0.067741	  0.312533	  0.122454	  0.124501	  0.316095	  0.377349	  0.667307	  0.737937	  0.129227	  0.212579	  0.171282	  0.000000	  0.000000	  0.000000	
3.817	  0.296648	  0.496104	  0.066699	  0.314111	  0.122665	  0.126080	  0.314149	  0.374513	  0.669103	  0.737120	  0.129666	  0.208015	  0.170090	  0.000000	  0.000000	  0.000000	
3.8175	  0.291323	  0.486895	  0.065662	  0.315758	  0.122880	  0.127699	  0.312224	  0.371667	  0.670837	  0.736234	  0.130118	  0.203500	  0.168925	  0.000000	  0.000000	  0.000000	
3.818	  0.286023	  0.477726	  0.064630	  0.317474	  0.123099	  0.129358	  0.310317	  0.368812	  0.672505	  0.735280	  0.130581	  0.199035	  0.167790	  0.000000	  0.000000	  0.000000	
3.8185	  0.280749	  0.468602	  0.063603	  0.319261	  0.123322	  0.131056	  0.308427	  0.365946	  0.674104	  0.734255	  0.131057	  0.194621	  0.166682	  0.000000	  0.000000	  0.000000	
3.819	  0.275504	  0.459524	  0.062581	  0.321117	  0.123549	  0.132794	  0.306555	  0.363069	  0.675632	  0.733159	  0.131545	  0.190257	  0.165604	  0.000000	  0.000000	  0.000000	
3.8195	  0.270290	  0.450497	  0.061566	  0.323045	  0.123778	  0.134572	  0.304699	  0.360181	  0.677086	  0.731990	  0.132046	  0.185946	  0.164553	  0.000000	  0.000000	  0.000000	
3.82	  0.265108	  0.441523	  0.060558	  0.325043	  0.124011	  0.136390	  0.302857	  0.357282	  0.678463	  0.730749	  0.132558	  0.181686	  0.163532	  0.000000	  0.000000	  0.000000	
3.8205	  0.259961	  0.432607	  0.059558	  0.327112	  0.124246	  0.138246	  0.301030	  0.354372	  0.679762	  0.729433	  0.133083	  0.177479	  0.162538	  0.000000	  0.000000	  0.000000	
3.821	  0.254849	  0.423749	  0.058565	  0.329252	  0.124483	  0.140142	  0.299216	  0.351451	  0.680981	  0.728042	  0.133620	  0.173325	  0.161574	  0.000000	  0.000000	  0.000000	
3.8215	  0.249775	  0.414955	  0.057581	  0.331463	  0.124722	  0.142077	  0.297414	  0.348519	  0.682118	  0.726574	  0.134168	  0.169224	  0.160637	  0.000000	  0.000000	  0.000000	
3.822	  0.244740	  0.406225	  0.056606	  0.333746	  0.124963	  0.144051	  0.295623	  0.345576	  0.683172	  0.725027	  0.134729	  0.165176	  0.159730	  0.000000	  0.000000	  0.000000	
3.8225	  0.239746	  0.397564	  0.055640	  0.336099	  0.125204	  0.146064	  0.293842	  0.342623	  0.684140	  0.723399	  0.135301	  0.161183	  0.158850	  0.000000	  0.000000	  0.000000	
3.823	  0.234794	  0.388973	  0.054685	  0.338522	  0.125447	  0.148115	  0.292071	  0.339659	  0.685021	  0.721690	  0.135884	  0.157244	  0.158000	  0.000000	  0.000000	  0.000000	
